<svg height="512pt" viewBox="0 0 512 512" width="512pt" xmlns="http://www.w3.org/2000/svg"><path d="m416 512h-320c-53.023438 0-96-42.976562-96-96v-320c0-53.023438 42.976562-96 96-96h320c53.023438 0 96 42.976562 96 96v320c0 53.023438-42.976562 96-96 96zm0 0" fill="rgba(255,255,255,0.00001)"/><path d="m336 256c0 44.183594-35.816406 80-80 80s-80-35.816406-80-80 35.816406-80 80-80 80 35.816406 80 80zm0 0" fill="#00ffe5"/><g fill="#00ffe5"><path d="m256 167.585938c-5.886719 0-10.671875-4.769532-10.671875-10.675782v-18.238281c0-5.902344 4.785156-10.671875 10.671875-10.671875s10.671875 4.769531 10.671875 10.671875v18.257813c0 5.886718-4.785156 10.65625-10.671875 10.65625zm0 0"/><path d="m170.128906 217.121094c-1.617187 0-3.265625-.367188-4.800781-1.152344l-15.472656-7.808594c-5.261719-2.65625-7.359375-9.070312-4.703125-14.335937 2.671875-5.265625 9.070312-7.359375 14.335937-4.703125l15.472657 7.824218c5.261718 2.65625 7.359374 9.070313 4.703124 14.335938-1.886718 3.710938-5.648437 5.839844-9.535156 5.839844zm0 0"/><path d="m154.671875 324.03125c-3.886719 0-7.648437-2.128906-9.535156-5.855469-2.65625-5.265625-.5625-11.679687 4.703125-14.335937l15.472656-7.824219c5.246094-2.671875 11.664062-.558594 14.335938 4.703125 2.65625 5.265625.558593 11.679688-4.703126 14.335938l-15.472656 7.824218c-1.535156.785156-3.183594 1.152344-4.800781 1.152344zm0 0"/><path d="m256 384c-5.886719 0-10.671875-4.769531-10.671875-10.671875v-18.257813c0-5.886718 4.785156-10.671874 10.671875-10.671874s10.671875 4.769531 10.671875 10.671874v18.257813c0 5.902344-4.785156 10.671875-10.671875 10.671875zm0 0"/><path d="m357.328125 324.03125c-1.617187 0-3.265625-.367188-4.800781-1.152344l-15.472656-7.824218c-5.261719-2.65625-7.359376-9.070313-4.703126-14.335938 2.65625-5.246094 9.089844-7.359375 14.335938-4.703125l15.472656 7.824219c5.265625 2.65625 7.359375 9.070312 4.703125 14.335937-1.886719 3.726563-5.648437 5.855469-9.535156 5.855469zm0 0"/><path d="m341.871094 217.121094c-3.886719 0-7.648438-2.128906-9.535156-5.855469-2.65625-5.265625-.558594-11.679687 4.703124-14.335937l15.472657-7.824219c5.25-2.671875 11.664062-.5625 14.335937 4.703125 2.65625 5.261718.558594 11.679687-4.703125 14.335937l-15.472656 7.824219c-1.535156.800781-3.183594 1.152344-4.800781 1.152344zm0 0"/></g></svg>