<svg enable-background="new 0 0 32 32" height="512" viewBox="0 0 32 32" width="512" xmlns="http://www.w3.org/2000/svg"><g id="BG"><path d="m26 32h-20c-3.314 0-6-2.686-6-6v-20c0-3.314 2.686-6 6-6h20c3.314 0 6 2.686 6 6v20c0 3.314-2.686 6-6 6z" fill="rgba(255,255,255,0.0001)"/></g><g id="bold"><path d="m23.46 14.705-1.267-1.267v-1.787c0-1.013-.827-1.84-1.84-1.84h-1.787l-1.266-1.266c-.693-.693-1.907-.693-2.6 0l-1.267 1.267h-1.787c-1.013 0-1.84.827-1.84 1.84v1.787l-1.266 1.266c-.347.347-.54.813-.54 1.3s.193.953.54 1.3l1.267 1.267v1.787c0 1.013.827 1.84 1.84 1.84h1.787l1.267 1.267c.347.347.813.54 1.3.54s.953-.193 1.3-.54l1.267-1.267h1.787c1.013 0 1.84-.827 1.84-1.84v-1.787l1.267-1.267c.347-.347.54-.813.54-1.3-.002-.487-.195-.953-.542-1.3zm-5.947 4.08c.193.073.32.26.32.467 0 .2-.12.387-.313.467-.473.187-.987.287-1.52.287-2.32 0-4-1.68-4-4s1.68-4 4-4c.533 0 1.047.1 1.52.287.193.08.313.267.313.467 0 .207-.127.393-.32.467-1.053.413-2.18 1.36-2.18 2.78s1.127 2.365 2.18 2.778z" fill="#ff0095"/></g></svg>